<svg width="19" height="20" viewBox="0 0 19 20" fill="none" xmlns="http://www.w3.org/2000/svg">
<path d="M11.12 15.0232L6.921 12.7332C6.3728 13.3193 5.66098 13.7269 4.87807 13.9031C4.09516 14.0793 3.27735 14.0159 2.53092 13.7212C1.78449 13.4266 1.14396 12.9142 0.692568 12.2506C0.241175 11.5871 -0.000205994 10.8032 -0.000205994 10.0007C-0.000205994 9.19821 0.241175 8.41427 0.692568 7.75076C1.14396 7.08725 1.78449 6.57486 2.53092 6.28016C3.27735 5.98547 4.09516 5.92211 4.87807 6.09832C5.66098 6.27452 6.3728 6.68214 6.921 7.2682L11.121 4.9782C10.8826 4.03428 10.9966 3.03579 11.4416 2.16991C11.8867 1.30402 12.6323 0.630184 13.5387 0.274705C14.445 -0.0807746 15.4499 -0.0934916 16.365 0.238938C17.28 0.571367 18.0425 1.22612 18.5093 2.08046C18.9762 2.93481 19.1154 3.93009 18.9009 4.87975C18.6864 5.82941 18.1329 6.66824 17.3442 7.23901C16.5555 7.80979 15.5857 8.07331 14.6166 7.9802C13.6475 7.88708 12.7456 7.44371 12.08 6.7332L7.88 9.0232C8.0412 9.66456 8.0412 10.3358 7.88 10.9772L12.079 13.2672C12.7446 12.5567 13.6465 12.1133 14.6156 12.0202C15.5847 11.9271 16.5545 12.1906 17.3432 12.7614C18.1319 13.3322 18.6854 14.171 18.8999 15.1207C19.1144 16.0703 18.9752 17.0656 18.5083 17.9199C18.0415 18.7743 17.279 19.429 16.364 19.7615C15.4489 20.0939 14.444 20.0812 13.5377 19.7257C12.6313 19.3702 11.8857 18.6964 11.4406 17.8305C10.9956 16.9646 10.8816 15.9661 11.12 15.0222V15.0232ZM4 12.0002C4.53043 12.0002 5.03914 11.7895 5.41421 11.4144C5.78929 11.0393 6 10.5306 6 10.0002C6 9.46977 5.78929 8.96106 5.41421 8.58599C5.03914 8.21092 4.53043 8.0002 4 8.0002C3.46957 8.0002 2.96086 8.21092 2.58579 8.58599C2.21071 8.96106 2 9.46977 2 10.0002C2 10.5306 2.21071 11.0393 2.58579 11.4144C2.96086 11.7895 3.46957 12.0002 4 12.0002ZM15 6.0002C15.5304 6.0002 16.0391 5.78949 16.4142 5.41442C16.7893 5.03934 17 4.53064 17 4.0002C17 3.46977 16.7893 2.96106 16.4142 2.58599C16.0391 2.21092 15.5304 2.0002 15 2.0002C14.4696 2.0002 13.9609 2.21092 13.5858 2.58599C13.2107 2.96106 13 3.46977 13 4.0002C13 4.53064 13.2107 5.03934 13.5858 5.41442C13.9609 5.78949 14.4696 6.0002 15 6.0002ZM15 18.0002C15.5304 18.0002 16.0391 17.7895 16.4142 17.4144C16.7893 17.0393 17 16.5306 17 16.0002C17 15.4698 16.7893 14.9611 16.4142 14.586C16.0391 14.2109 15.5304 14.0002 15 14.0002C14.4696 14.0002 13.9609 14.2109 13.5858 14.586C13.2107 14.9611 13 15.4698 13 16.0002C13 16.5306 13.2107 17.0393 13.5858 17.4144C13.9609 17.7895 14.4696 18.0002 15 18.0002Z" fill="#4E4B66"/>
</svg>
